<?xml version="1.0" encoding="utf-8"?>
<!-- Generator: Adobe Illustrator 21.1.0, SVG Export Plug-In . SVG Version: 6.00 Build 0)  -->
<svg version="1.1" id="Calque_1" xmlns="http://www.w3.org/2000/svg" xmlns:xlink="http://www.w3.org/1999/xlink" x="0px" y="0px"
	 viewBox="0 0 30 30" style="enable-background:new 0 0 30 30;" xml:space="preserve">
<style type="text/css">
	.st0{fill:#FFFFFF;}
	.st1{fill:#FF9120;}
</style>
<g>
	<rect x="14.8" y="-6" transform="matrix(0.7071 -0.7071 0.7071 0.7071 -6.1955 14.9573)" class="st0" width="0.3" height="42"/>
	<g>
		<g>
			<g>
				<g>
					<path class="st1" d="M30.2,30.3c-0.1,0.1,0,0.1,0,0.2C30.3,30.3,30.2,30.3,30.2,30.3z"/>
					<polygon class="st1" points="28.9,28.1 28.9,28.1 28.6,28 					"/>
					<path class="st1" d="M27.5,26.8c0,0.3,0.5,0.5,0.7,0.8l0,0.1l0.2,0C28.1,27.3,27.7,27,27.5,26.8z"/>
					<path class="st1" d="M27.1,25.8c0,0.1-0.2-0.1,0.2,0.2c0,0,0,0,0,0C27.2,25.9,27.1,25.8,27.1,25.8z"/>
					<path class="st1" d="M27.2,25.9C27.3,26,27.1,25.8,27.2,25.9L27.2,25.9z"/>
					<path class="st1" d="M26.5,25.3l0.2,0.1c0-0.1-0.2-0.2-0.1-0.2C26.4,25,26.4,25.1,26.5,25.3z"/>
					<path class="st1" d="M26.2,25.2l0.1,0.1C26.3,25.2,26.3,25.2,26.2,25.2z"/>
					<path class="st1" d="M26.6,25.4l-0.2-0.2c0,0,0,0.1,0.1,0.1C26.4,25.4,26.5,25.4,26.6,25.4z"/>
					<path class="st1" d="M26.7,25.6c0.1,0.1,0.2,0.3,0,0.1C27,26.1,27.1,25.9,26.7,25.6z"/>
					<path class="st1" d="M27.3,26.8l0.1,0.2l0.2,0.1C27.5,27,27.3,26.8,27.3,26.8z"/>
					<path class="st1" d="M25.4,24c0,0,0,0.1,0,0.2l0.2,0.1C25.5,24.2,25.4,24.1,25.4,24z"/>
					<path class="st1" d="M25.4,24.2L25.1,24C25.3,24.2,25.3,24.2,25.4,24.2z"/>
					<polygon class="st1" points="26.1,25.3 26.5,25.5 26,25.2 					"/>
					<polygon class="st1" points="24.6,23.2 24.8,23.3 24.5,23.2 					"/>
					<path class="st1" d="M24.1,22.7c0.1,0,0-0.2,0.1-0.1c-0.2-0.1-0.3-0.2-0.5-0.3C23.8,22.4,23.9,22.5,24.1,22.7z"/>
					<path class="st1" d="M23.4,22.1c0.1,0,0.2,0.1,0.2,0.1C23.6,22.2,23.5,22.2,23.4,22.1z"/>
					<path class="st1" d="M24.8,23.7c0,0,0-0.1-0.1-0.2L24.8,23.7C24.7,23.6,24.7,23.6,24.8,23.7z"/>
					<path class="st1" d="M24.7,23.6L24.7,23.6c-0.1-0.1-0.1-0.2-0.2-0.2C24.5,23.4,24.6,23.5,24.7,23.6z"/>
					<path class="st1" d="M24.8,23.7L24.8,23.7C24.8,23.7,24.8,23.7,24.8,23.7z"/>
					<path class="st1" d="M25.6,24.7c-0.2-0.1-0.5-0.3-0.3,0C25.4,24.7,25.3,24.5,25.6,24.7z"/>
					<path class="st1" d="M24.8,23.9l0.2,0.2c0,0,0-0.1,0.1-0.1L24.8,23.9z"/>
					<polygon class="st1" points="24.7,23.8 24.8,23.9 24.7,23.8 					"/>
					<path class="st1" d="M23.7,22.6c-0.1-0.1-0.2-0.2-0.4-0.3c0.1,0.1,0.2,0.3,0.4,0.4C23.8,22.7,23.9,22.7,23.7,22.6z"/>
					<path class="st1" d="M24.2,23.1L24.2,23.1C24.2,23.1,24.2,23.1,24.2,23.1z"/>
					<polygon class="st1" points="22.2,21.1 22.2,21.2 22.2,21.2 					"/>
					<path class="st1" d="M23.7,22.8c0.1,0.1,0.2,0.1,0.2,0.2C23.9,22.9,23.8,22.8,23.7,22.8C23.7,22.7,23.7,22.7,23.7,22.8z"/>
					<path class="st1" d="M23.1,21.9c0,0.1,0.1,0.1,0.1,0.2C23.2,22,23.1,21.9,23.1,21.9z"/>
					<path class="st1" d="M24.2,23L24.2,23C24.2,23,24.2,23,24.2,23z"/>
					<path class="st1" d="M24.2,23C24.1,23,24,23,24,22.9C24,23,24.1,23,24.2,23C24.2,23.1,24.2,23,24.2,23z"/>
					<path class="st1" d="M21.4,21.3c0.1-0.1,0.4,0.1,0.5,0.4c0.3,0.2,0.4-0.2,0.3-0.5c0,0-0.1,0.1-0.3-0.1c0,0.1,0.4,0.6,0.1,0.5
						c-0.3-0.3-0.2-0.3-0.3-0.4c0,0.2-0.5-0.2-0.6-0.1L21.4,21.3C21.4,21.3,21.3,21.2,21.4,21.3z"/>
					<path class="st1" d="M22.6,21.6L22.6,21.6c0,0,0-0.1-0.1-0.3c-0.2-0.1-0.2-0.1-0.3-0.1L22.6,21.6L22.6,21.6z"/>
					<path class="st1" d="M23.1,22.1c-0.1,0-0.4-0.2-0.3,0c0.3,0.3,0.2,0.1,0.4,0.2C22.8,22,23.4,22.5,23.1,22.1
						c0.1,0.1,0.2,0.2,0.2,0.2C23.3,22.2,23.2,22.1,23.1,22.1L23.1,22.1L23.1,22.1L23.1,22.1C23.2,22.1,23.2,22.1,23.1,22.1
						L23.1,22.1C23.2,22.1,23.2,22.1,23.1,22.1C23,22,23.1,22.1,23.1,22.1L23.1,22.1L23.1,22.1l-0.4-0.4
						C22.8,21.8,22.9,21.9,23.1,22.1z"/>
					<path class="st1" d="M24.9,24.6C24.9,24.6,24.9,24.6,24.9,24.6C24.9,24.6,24.9,24.6,24.9,24.6z"/>
					<path class="st1" d="M24.8,24.4c0,0,0.1,0,0.2,0.1c0.1,0.1,0,0-0.1,0.1c0.1,0,0.3,0.2,0.1-0.1l0,0c-0.1-0.2-0.3-0.5-0.2-0.5
						C24.7,24.1,24.7,24.2,24.8,24.4z"/>
					<path class="st1" d="M23.9,23.3l-0.4-0.3l0.1,0.2l0,0C23.9,23.4,23.9,23.3,23.9,23.3z"/>
					<polygon class="st1" points="22.2,21.1 22.3,21 22,20.9 					"/>
					<polygon class="st1" points="21.7,20.6 21.8,20.6 21.7,20.5 					"/>
					<path class="st1" d="M5.3,4.7l0.1,0.1C5.4,4.7,5.3,4.7,5.3,4.7z"/>
					<path class="st1" d="M4.5,3.9L4.5,3.9C4.5,3.9,4.6,3.9,4.5,3.9z"/>
					<path class="st1" d="M10.3,9.2c-0.1-0.2-0.2-0.5-0.2-0.4l0,0.1C10.2,9.1,10.3,9.2,10.3,9.2z"/>
					<path class="st1" d="M2.1,1.9L2.1,1.9C2.2,2,2.2,2,2.3,2C2.2,2,2.2,1.9,2.1,1.9z"/>
					<path class="st1" d="M1.7,2.1L1.5,1.9C1.5,1.9,1.6,2,1.7,2.1z"/>
					<path class="st1" d="M9.5,8.7l0.2,0C9.5,8.6,9.6,8.7,9.5,8.7z"/>
					<path class="st1" d="M17,15.9c-0.1-0.2-0.2-0.3-0.3-0.4C16.8,15.7,16.9,15.9,17,15.9z"/>
					<path class="st1" d="M4.2,5.2c0.1,0.1,0.1,0.1,0.1,0C4.2,5.2,4.2,5.2,4.2,5.2z"/>
					<path class="st1" d="M16.3,15.1C16.3,15.2,16.3,15.2,16.3,15.1c0.2,0.2,0.3,0.3,0.4,0.4C16.6,15.4,16.5,15.2,16.3,15.1z"/>
					<path class="st1" d="M24.5,23.8C24.5,23.8,24.5,23.9,24.5,23.8C24.5,23.9,24.5,23.8,24.5,23.8z"/>
					<path class="st1" d="M28.1,29c0,0-0.1-0.1-0.2-0.2C27.9,28.8,28,28.9,28.1,29z"/>
					<path class="st1" d="M19.9,18.7C20,18.8,19.9,18.7,19.9,18.7L19.9,18.7z"/>
					<path class="st1" d="M20.1,19.5C20.1,19.5,20,19.5,20.1,19.5C20,19.5,20.1,19.5,20.1,19.5z"/>
					<path class="st1" d="M14.8,14.6L14.8,14.6C14.8,14.7,14.8,14.7,14.8,14.6z"/>
					<path class="st1" d="M20,18.9c0,0-0.1-0.1-0.1-0.1C19.9,18.8,20,18.8,20,18.9z"/>
					<path class="st1" d="M20,18.8C20.1,18.9,20.1,18.9,20,18.8C20.1,18.9,20.1,18.9,20,18.8z"/>
					<path class="st1" d="M19.8,18.6c0.1,0.1,0.1,0.1,0.2,0.2c0,0,0,0,0,0C19.9,18.7,19.8,18.7,19.8,18.6z"/>
					<path class="st1" d="M16.2,16C16.2,16,16.2,16,16.2,16C16.4,16.1,16.3,16,16.2,16z"/>
					<path class="st1" d="M7,7.5C7,7.5,7,7.5,7,7.5L7,7.5L7,7.5z"/>
					<path class="st1" d="M6.6,7.2C6.8,7.2,6.9,7.3,7,7.5l0.1-0.3L6.6,7.2z"/>
					<path class="st1" d="M7.1,6.5L6.9,6.1c0.4,0.2,0.6,0.4,0.5,0.1c-0.3,0.2-1-0.9-1.3-0.7L6,5.3c0,0,0.1,0,0.1,0.1
						C5.9,5,5.7,5.3,5.3,4.9C5.2,4.7,5.2,4.6,5.3,4.7L4.9,4.4c-0.1-0.1,0-0.1,0.1,0L4.5,3.9l0,0c-0.1,0-0.3-0.1-0.4-0.2
						c-0.1-0.2,0.1,0,0.1,0L3.8,3.5c0-0.2,0.2,0,0.4,0.2c0-0.5-0.3-0.2-0.7-0.8l0.3,0.2c0-0.3-0.3-0.4-0.5-0.8c0,0.1,0.4,0.8,0,0.6
						C3.3,2.7,3.2,2.6,3,2.5c0.1-0.1-0.1-0.2-0.3-0.4L2.8,2C2.6,1.8,2.5,1.9,2.4,1.8C2.2,1.6,2.2,1.4,2.2,1.3
						c-0.4-0.4,0.1,0.4-0.3,0c-0.3-0.4-0.5-0.5-1-0.8C0.7,0.2,1,0.4,1,0.3L0.7,0.2c0,0,0-0.1,0-0.1C0.5,0,0.6,0.2,0.3,0
						c0,0,0,0-0.1,0l0,0.4c0-0.1,0.1-0.1,0.3-0.2L0,0.3c0.1,0.2,0.3,0.5,0.5,0.6c0,0.1-0.1,0-0.1,0.1c0.5,0.3,0.4,0.3,0.9,0.5
						l0.2,0.4c-0.1-0.3,0.2-0.1,0.6,0C2.1,1.8,2,1.7,2,1.6L2.5,2c0,0.1,0,0.1-0.2,0c0,0,0.1,0,0.1,0c0.1,0.2,0,0.2-0.2,0.1
						c0-0.1,0-0.1-0.1-0.2c-0.2,0-0.3,0-0.4,0c0,0,0.1,0.1,0.2,0.1c0,0-0.1,0-0.1,0c0,0,0.1,0,0.2,0.1l0,0.2l0.1,0L2.5,3
						c0.5,0.2,1,0.4,1.6,0.9C3.9,3.8,3.9,4,3.8,4.1c0-0.3-0.5-0.4-0.8-0.7c0.1,0.2,0.1,0.2,0,0.2L3.7,4c-0.1,0.1,0,0.2,0.2,0.4
						c0.1-0.3,0.5,0.3,0.8,0.5c0,0.1-0.2,0.1-0.4-0.2C4.4,5,4.8,4.8,5,5.2C4.9,5.1,4.9,5.1,4.8,5.1C5,5.2,5.4,5.6,5.2,5.6L5.2,5.5
						C5.6,6,6.5,6.8,6.7,6.7c0,0-0.2,0.1-0.3,0.1l1.3,0.3C7.5,7.2,7.4,7.8,7,7.5c0.1,0.1,0.2,0.3,0.5,0.4c-0.1-0.1,0-0.4,0.1-0.3
						c0.1,0.4,0.1,0.3,0.3,0.7c-0.1-0.1,0.2-0.2,0.4,0C8.2,8.3,8.1,8.5,8,8.5l0.6,0.2C8.5,8.6,8.5,8.9,8.5,9c0-0.1,0.4,0.4,0.5,0.5
						L8.9,9.2c0.4,0.5,0.7,0.2,1.2,0.7c-0.1,0-0.4,0.1-0.2,0.4c0.2,0,1,0,1.5,0.3l0,0.1l0.4,0.3c-0.4,0-1.2-0.3-1.7-0.5
						c0.1,0.2,0,0.1,0.3,0.4c0,0.1-0.2-0.1-0.3-0.1l0.6,0.7c0.1-0.1,0.6,0.4,0.7,0.2l-0.8-0.5c0.1-0.1,0.7,0,1.1,0.5
						c0.1,0.2-0.3,0.1-0.3,0.2c0.1,0,0.5,0.3,0.5,0.4l-0.2-0.1c0.2,0.3,0.6,0.2,0.7,0.6c0.1,0.1,0.1,0.5,0.2,0.4
						c0-0.3,0.4-0.8,0.6-0.7c0,0,0.4,0.7,0.4,0.8c0.1,0.3-0.5,0-0.5,0.2c0,0,0.2,0,0.2,0.1c0.1,0.1-0.1,0.1,0.1,0.3
						c0.2-0.1,0.5,0.5,0.2,0c0.3,0.2,0.2,0.3,0.5,0.5c0-0.2,0.5,0,0.8,0.2c0,0,0,0.1,0,0.2c0.5,0.5,0.6,0.8,1.1,1.2
						c0,0.1,0.2,0.3,0,0.3c0.1,0,0.2,0.1,0.3,0.2c0.2,0.4-0.3-0.3-0.2,0c0.1-0.1,0.4,0.2,0.7,0.4c0.1-0.2-0.4-0.5-0.6-0.6
						c0.1-0.2,0.6,0,1.2,0.4c0.4,0.3,0.1,0.3,0.1,0.3c0.6,0.7,0.8,0.3,1.3,1c0.1,0.3-0.2,0.2-0.2,0.3c-0.3-0.3-0.4-0.5-0.6-0.7
						l0.2,0.3c-0.1-0.1-0.3-0.2-0.4-0.4c0.1,0.3,1.1,1.1,1.6,1.7c0.1,0.1,0.3,0.2,0.3,0.1L19.3,19c-0.1-0.2,0.4,0.2,0.2,0
						c0.3,0.2,0.6,0.3,0.9,0.7l-0.1,0.2c0,0-0.1-0.3-0.3-0.3c0.2,0.1,0.3,0.6,0.6,0.6l-0.1-0.3c0.3,0.2,0.7,0.3,0.9,0.6
						c0-0.2-0.1-0.1-0.1-0.4c0,0.3-0.7-0.7-0.6-0.3c-0.1-0.3-0.3-0.4-0.4-0.8c0,0,0,0.2-0.2-0.1c0,0-0.1,0-0.1,0l0,0l0,0
						c0,0,0,0,0,0c0,0.1,0.1,0.1,0.1,0.2c-0.2,0-0.6-0.4-0.7-0.5c-0.1-0.2,0.1,0,0.1-0.1l-0.2-0.1c0.1-0.1-0.2-0.5,0.1-0.2L19,17.9
						c-0.1-0.2-0.3-0.5-0.5-0.6c-0.1-0.2-0.4-0.3-0.3-0.2l-0.5-0.4l0,0c-0.4-0.5-1.1-0.8-1.4-1.4c-0.2-0.1-0.4-0.3-0.6-0.5l0-0.1
						c-0.2-0.2-0.5-0.7-0.7-0.7c0-0.4-0.9-1-1.2-1.4l-0.1,0.1c-0.2-0.2-0.5-0.4-0.8-0.7L12.9,12c-0.3-0.2-0.6-0.7-1-1.1
						c0.1,0,0.2,0.1,0.2,0.2c-0.3-0.7-1.1-0.9-1.4-1.4c-0.1-0.1-0.2-0.2-0.3-0.3c0,0,0,0,0,0c0,0,0,0,0,0c0-0.1-0.1-0.1-0.1-0.2
						c0,0.1,0.1,0.1,0.1,0.2c-0.1-0.1-0.2-0.2-0.4-0.3l0-0.1c0,0,0,0,0,0C10,8.8,9.9,8.9,9.9,9C9.9,9,9.8,8.9,9.7,8.9
						c0-0.2-0.4-0.3-0.4-0.6c-0.2,0-0.7-0.6-0.9-0.5c0,0,0-0.1,0.1,0C8.4,7.7,8.3,7.6,8.1,7.5l0.1-0.2L7.7,7.2
						C7.6,6.9,7.6,6.8,7.8,6.9C7.3,6.6,7.4,6.6,6.9,6.3L7,6.3C6.9,6.2,6.6,6,6.6,5.9C6.4,5.5,5.1,4.4,4.5,3.5C4.4,3.9,4.2,3.1,4,3.2
						C4,3.1,4,3,4.1,3.1C3.7,2.7,3.6,2.4,3.2,2.3c0-0.1,0.2,0,0.1-0.1c0,0-0.2-0.1-0.2-0.2c0-0.1,0.1,0,0.2,0.1C3,1.7,2.8,1.9,2.6,2
						C2.5,1.7,2.4,1.6,2.1,1.6c0-0.1-0.1-0.3,0.2-0.1C2.2,1.4,1.5,0.6,1.4,0.7c0-0.1-0.2-0.2-0.2-0.2C0.8,0.1,0.8,0.1,0.5-0.2
						l0.1,0.1c-0.1,0-0.2,0-0.2-0.1L0.2-0.3L0.1-0.1C0-0.1-0.1,0-0.2,0.1l-0.2,0.1l0.2,0.2c0,0,0.1,0.1,0.1,0.1l0,0
						c0.5,0.7,0.3,0.2,0.7,0.9l0.1-0.1C1,1.2,1.1,1.9,1.5,2.1L1.4,2c0.2,0.1,0.2,0.7,0.4,0.9c0,0.1-0.1,0-0.2-0.1
						C2,3.4,1.9,2.8,2.2,3.1c0,0.1-0.2,0.1,0,0.3c0.1,0.2,0.9,0.5,1.1,0.9c0-0.1,0-0.2,0.1-0.1c0.3,0.2,0.5,0.8,0.9,0.9
						c0,0,0,0.1,0,0.1C4.5,5.4,5,5.8,5.2,5.8c-0.1,0.5,1.3,1,1,1.3l0.6,0.6l0,0c0.4,0.4,0.5,0.5,0.7,0.5c0.1,0.1,0,0.1,0,0.1
						C8,8.9,8,8.9,8.6,9.2l0,0.1c0.2,0.1,0.6,0.9,1.3,1.3c0,0,0,0-0.1,0c0.7,0.5,1.2,1.7,1.7,1.6l0.5,0.3c-0.5-0.5,0.2-0.1,0.1-0.3
						c0.2,0.2,0.4,0.6,0.2,0.4l0-0.1c-0.3,0.1,0.6,0.7,0.4,0.8c1,1,1.9,2.1,2.8,3l0-0.2l0.3,0.3c0.1,0.1,0,0.2-0.2,0
						c0,0.2,0.5,0.3,0.5,0.3c0.4,0.5-0.3,0-0.2,0.1l0.2,0.2l0-0.1c0.2,0.1,0.3,0.1,0.6,0.3c0.2,0.2,0,0.2,0.1,0.2c0,0,0,0,0.1,0.1
						l0.4,0.4l-0.1-0.3c0.2,0.1,0.4,0.4,0.3,0.1c0.1,0.5,1.5,1.6,1.6,1.8c0.3,0.2,0.6,0.4,0.9,0.8c-0.1-0.1,0-0.3,0.3,0
						c-0.3,0.1,0.4,0.6,0.4,1c-0.1-0.3,0.8,0.7,0.7,0.3c0.2,0.2-0.1,0.1,0,0.3c0.6,0.4,1.1,1.2,1.8,1.9c0,0,0-0.2,0.2-0.1l0.2,0.5
						c0.1,0.1,0.3-0.1,0.4,0.3c0-0.1,0-0.1,0.1-0.1c1.1,1.5,2.8,2.5,3.8,4.1c-0.1-0.2,0-0.1,0.1,0c-0.1-0.1,0.1-0.1,0.1-0.1l0.4,0.7
						c0.2,0,0.6,0.6,0.8,0.5L29,29.7c0.4,0.1,0-0.6,0.2-0.8c-0.4-0.1-0.5-0.9-1.1-1.1c-0.1-0.1,0.1,0,0.1-0.1
						c-0.2,0-0.3-0.2-0.5-0.4l0,0c-0.7-0.7-0.9-1-1.6-1.8l0,0.1c-0.2-0.2-0.2-0.2-0.2-0.3c-0.3-0.1,0.5,0.5,0.1,0.4
						c0-0.4-1.2-1.2-1.1-1.5c-0.3-0.3,0,0.2-0.3-0.1l0-0.1l-0.1,0c-0.2-0.2-0.2-0.3-0.1-0.4c0,0,0.1,0.1,0.2,0.1
						c-0.2-0.3-0.6-0.6-0.7-0.7l0.2,0.3c-0.7-0.6-1.5-1.6-2.3-2.1l0,0.1c-0.6-0.4-0.4-0.5-1-1l0,0c-0.2-0.1-0.3-0.2-0.5-0.4
						c0.2,0.1-0.2-0.4,0.1-0.2c-0.6-0.5-0.3-0.2-0.8-0.4l0-0.1c-0.2-0.1-0.2,0-0.5-0.3c0.3,0.2-0.1-0.3,0.3-0.1
						c-0.4-0.7-1-0.7-1.1-1.2c-0.5-0.1,0.4,0.6,0.2,0.5c0.1,0.2-0.4-0.1-0.5-0.3c-0.2-0.2-0.1-0.6-0.6-1c0,0,0.1,0,0.1,0.1
						c-0.1-0.2-0.4-0.3-0.5-0.6c-0.2,0-0.3-0.3-0.4-0.2l0.5,0.4c-0.3-0.2-0.7-0.3-1-0.8c0.1,0,0.2,0.1,0.3,0.1
						c-0.1-0.2-0.3-0.2-0.3-0.4c0.2-0.1,0.6,0.5,0.9,0.6c-0.1-0.2-0.6-0.4-0.3-0.4c-0.4,0-0.4-0.5-0.9-0.7l0.1-0.1
						c-0.1,0-0.2-0.1-0.3-0.2l0.3,0.1c-0.4-0.2-0.4-0.6-0.7-0.8c0.5,0.5,0,0.2,0.2,0.5c-0.8-0.5-0.1-0.6-0.9-1.3
						c0.1,0.1,0.3,0.4,0.1,0.3c-0.1-0.2-0.3-0.4-0.3-0.5c-0.5-0.5,0,0.2-0.3,0c-0.1-0.3-0.3-0.2-0.5-0.4l0.1-0.1
						c-0.5-0.6-0.3,0-0.7-0.5l0.3,0.1l-0.3-0.2l0.1,0c-0.3-0.2-0.4-0.3-0.7-0.6c0,0.1-0.2,0.1-0.4-0.1c-0.1-0.2,0.2,0-0.2-0.3
						c0.1,0,0.3,0,0.3,0.3c0,0,0.1,0,0.2,0c-0.1-0.2-0.4-0.5-0.6-0.6c0,0.1,0.1,0.1,0.1,0.2L11,10.6c0-0.1,0-0.1,0.1,0
						c-0.1-0.1-0.2-0.1-0.4-0.3c0.1,0,0.2-0.1,0.4,0.1l-0.5-0.4c0-0.1-0.2-0.3-0.1-0.3c-0.2-0.3-0.8-0.5-1.1-0.9c0,0-0.1,0-0.2-0.1
						c-0.3-0.3-0.5-0.7-1-1L8.2,7.3C7.9,7,8.4,7.8,7.8,7.3C7.4,7,7.8,7.1,7.7,6.9C7.5,6.8,7,6.6,6.8,6.2C6.9,6.3,7,6.4,7.1,6.5z
						 M3.4,2.8C3.5,2.9,3.7,3,3.7,3.1C3.5,3.1,3.5,3,3.4,2.8z M2.5,2.6c-0.1,0-0.2-0.1-0.2-0.2C2.3,2.4,2.4,2.5,2.5,2.6z M18.8,17.7
						C18.8,17.7,18.8,17.7,18.8,17.7C18.6,17.5,18.7,17.6,18.8,17.7z M19.1,18.1C19.1,18.1,19.1,18.1,19.1,18.1c0,0-0.1-0.1-0.1-0.2
						C18.9,17.9,18.9,18,19.1,18.1z M16.7,17.6L16.7,17.6C16.8,17.6,16.8,17.6,16.7,17.6z"/>
					<path class="st1" d="M1.7,2.1C1.7,2.1,1.7,2,1.7,2.1C1.7,2,1.7,2,1.7,2.1z"/>
					<path class="st1" d="M9.5,8.7L9.5,8.7C9.5,8.7,9.5,8.7,9.5,8.7L9.5,8.7z"/>
					<path class="st1" d="M13.2,13.7c-0.1-0.1-0.1-0.1-0.1-0.2C13.1,13.5,13.1,13.5,13.2,13.7z"/>
					<path class="st1" d="M21,19.7l-0.2-0.2C20.8,19.6,20.9,19.7,21,19.7C20.9,19.7,20.9,19.6,21,19.7z"/>
					<path class="st1" d="M22.3,22.1c0,0,0.1,0.1,0.1,0.1l0,0C22.3,22,22.2,21.9,22.3,22.1z"/>
					<path class="st1" d="M20.9,20.2c-0.1,0.1,0.1,0.2,0.3,0.3l0,0C21.3,20.4,21.1,20.3,20.9,20.2z"/>
					<path class="st1" d="M21.2,20.5c0,0,0.1,0.1,0.1,0.1C21.4,20.7,21.3,20.6,21.2,20.5z"/>
					<path class="st1" d="M19.5,18.5c0.1,0.1,0.1,0,0.1,0C19.8,18.5,19.1,18.1,19.5,18.5z"/>
					<polygon class="st1" points="20.8,20.5 20.8,20.4 20.6,20.4 					"/>
					<path class="st1" d="M19.6,19.3l0.2,0.3c0,0,0.1,0,0.1,0C19.8,19.4,19.7,19.3,19.6,19.3z"/>
					<path class="st1" d="M20,19.6c0.1,0.1,0.1,0.1,0.2,0.2C20.1,19.7,20,19.6,20,19.6z"/>
					<polygon class="st1" points="20.4,20.2 20.4,20.1 20.2,20 					"/>
					<path class="st1" d="M17.1,16.7l-0.3-0.2c-0.1,0,0,0.1,0.1,0.2C17,16.7,17.1,16.8,17.1,16.7z"/>
					<path class="st1" d="M17.6,17.7c-0.1-0.1,0-0.1,0-0.2l-0.1,0.1L17.6,17.7z"/>
					<path class="st1" d="M16.9,17c-0.1,0-0.5-0.3-0.1,0C16.8,17,17.1,17.3,16.9,17z"/>
					<polygon class="st1" points="13.1,12.9 13.1,13 13.3,12.8 					"/>
					<path class="st1" d="M9.2,9.9c0.3,0.4,0.2,0,0.4,0.3c0.1,0-0.2-0.3-0.1-0.2C9.3,9.8,9.2,9.7,9.2,9.9z"/>
					<path class="st1" d="M9.5,10c0,0,0.1,0,0.1,0.1C9.6,10,9.6,10,9.5,10z"/>
					<polygon class="st1" points="28.7,29.8 28.9,30 28.8,29.8 					"/>
					<path class="st1" d="M29.2,30l-0.1,0.2l0.2,0C29.3,30.2,29.2,30.1,29.2,30z"/>
					<path class="st1" d="M3,2L3,2c0,0.1,0,0.1,0.1,0.2L3,2z"/>
					<polygon class="st1" points="5.6,4.8 5.6,4.8 5.6,4.9 					"/>
					<path class="st1" d="M8,6.9C7.9,6.8,7.8,6.8,7.7,6.7C7.9,6.8,7.9,7.1,8,6.9z"/>
				</g>
			</g>
		</g>
	</g>
</g>
<g>
	<rect x="-6" y="14.8" transform="matrix(0.7071 -0.7071 0.7071 0.7071 -6.1528 14.975)" class="st0" width="42" height="0.3"/>
	<g>
		<g>
			<g>
				<g>
					<path class="st1" d="M-0.3,30.1c-0.1-0.1-0.1,0-0.2,0C-0.3,30.3-0.3,30.1-0.3,30.1z"/>
					<polygon class="st1" points="1.8,28.8 1.8,28.9 2,28.6 					"/>
					<path class="st1" d="M3.2,27.5c-0.3,0-0.5,0.5-0.8,0.7l-0.1,0l0,0.2C2.6,28.1,3,27.6,3.2,27.5z"/>
					<path class="st1" d="M4.2,27c-0.1,0,0.1-0.2-0.2,0.2c0,0,0,0,0,0C4.1,27.1,4.1,27.1,4.2,27z"/>
					<path class="st1" d="M4.1,27.2C3.9,27.3,4.2,27.1,4.1,27.2L4.1,27.2z"/>
					<path class="st1" d="M4.7,26.5l-0.1,0.2c0.1,0,0.2-0.2,0.2-0.1C4.9,26.4,4.8,26.4,4.7,26.5z"/>
					<path class="st1" d="M4.8,26.2l-0.1,0.1C4.7,26.3,4.8,26.3,4.8,26.2z"/>
					<path class="st1" d="M4.5,26.6l0.2-0.2c0,0-0.1,0-0.1,0.1C4.6,26.4,4.6,26.4,4.5,26.6z"/>
					<path class="st1" d="M4.4,26.6c-0.1,0.1-0.3,0.2-0.1,0C3.9,27,4,27,4.4,26.6z"/>
					<path class="st1" d="M3.1,27.3L3,27.4l-0.1,0.2C2.9,27.5,3.2,27.3,3.1,27.3z"/>
					<path class="st1" d="M5.9,25.3c0,0-0.1,0-0.2,0l-0.1,0.2C5.7,25.4,5.9,25.3,5.9,25.3z"/>
					<path class="st1" d="M5.8,25.3l0.2-0.3C5.7,25.2,5.7,25.3,5.8,25.3z"/>
					<polygon class="st1" points="4.7,26 4.4,26.5 4.7,25.9 					"/>
					<polygon class="st1" points="6.7,24.6 6.7,24.7 6.8,24.4 					"/>
					<path class="st1" d="M7.3,24c0,0.1,0.2,0,0.1,0.1c0.1-0.2,0.2-0.3,0.3-0.5C7.6,23.8,7.5,23.9,7.3,24z"/>
					<path class="st1" d="M7.8,23.4c0,0.1-0.1,0.2-0.1,0.2C7.7,23.6,7.8,23.5,7.8,23.4z"/>
					<path class="st1" d="M6.3,24.7c0,0,0.1,0,0.2-0.1L6.3,24.7C6.3,24.7,6.3,24.7,6.3,24.7z"/>
					<path class="st1" d="M6.4,24.6L6.4,24.6c0.1-0.1,0.2-0.1,0.2-0.2C6.5,24.5,6.5,24.5,6.4,24.6z"/>
					<path class="st1" d="M6.3,24.7L6.3,24.7C6.3,24.7,6.3,24.7,6.3,24.7z"/>
					<path class="st1" d="M5.3,25.5c0.1-0.2,0.3-0.5,0-0.3C5.2,25.4,5.4,25.3,5.3,25.5z"/>
					<path class="st1" d="M6.1,24.7L5.8,25c0,0,0.1,0,0.1,0.1L6.1,24.7z"/>
					<polygon class="st1" points="6.2,24.6 6.1,24.7 6.2,24.7 					"/>
					<path class="st1" d="M7.4,23.7c0.1-0.1,0.2-0.2,0.3-0.4c-0.1,0.1-0.3,0.2-0.4,0.4C7.2,23.7,7.2,23.8,7.4,23.7z"/>
					<path class="st1" d="M6.9,24.1L6.9,24.1C6.9,24.1,6.9,24.1,6.9,24.1z"/>
					<polygon class="st1" points="8.8,22.2 8.8,22.2 8.8,22.2 					"/>
					<path class="st1" d="M7.2,23.7c-0.1,0.1-0.1,0.2-0.2,0.2C7.1,23.9,7.2,23.8,7.2,23.7C7.2,23.7,7.2,23.7,7.2,23.7z"/>
					<path class="st1" d="M8.1,23c-0.1,0-0.1,0.1-0.2,0.1C8,23.1,8.1,23.1,8.1,23z"/>
					<path class="st1" d="M6.9,24.1L6.9,24.1C7,24.1,7,24.1,6.9,24.1z"/>
					<path class="st1" d="M6.9,24.1C7,24.1,7,24,7,23.9C7,24,6.9,24.1,6.9,24.1C6.9,24.1,6.9,24.1,6.9,24.1z"/>
					<path class="st1" d="M8.7,21.3c0.1,0.1-0.1,0.4-0.4,0.5c-0.2,0.3,0.2,0.4,0.5,0.3c0,0-0.1-0.1,0.1-0.3c-0.1,0-0.6,0.4-0.5,0.1
						c0.3-0.3,0.3-0.2,0.4-0.3c-0.2,0,0.2-0.5,0.1-0.6L8.7,21.3C8.7,21.4,8.8,21.3,8.7,21.3z"/>
					<path class="st1" d="M8.4,22.6L8.4,22.6c0,0,0.1,0,0.3-0.1c0.1-0.2,0.1-0.2,0.1-0.3L8.4,22.6L8.4,22.6z"/>
					<path class="st1" d="M7.9,23.1c0-0.1,0.2-0.4,0-0.3C7.6,23,7.7,23,7.6,23.2C8,22.7,7.5,23.4,7.9,23.1c-0.1,0.1-0.2,0.2-0.2,0.2
						C7.7,23.3,7.8,23.2,7.9,23.1L7.9,23.1L7.9,23.1L7.9,23.1C7.9,23.2,7.8,23.2,7.9,23.1L7.9,23.1C7.9,23.1,7.9,23.1,7.9,23.1
						C8,23,7.9,23.1,7.9,23.1L7.9,23.1L7.9,23.1l0.4-0.4C8.2,22.8,8.1,22.9,7.9,23.1z"/>
					<path class="st1" d="M5.3,24.9C5.4,24.9,5.4,24.9,5.3,24.9C5.4,24.8,5.4,24.8,5.3,24.9z"/>
					<path class="st1" d="M5.6,24.7c0,0,0,0.1-0.1,0.2c-0.1,0.1,0,0-0.1-0.1c0,0.1-0.2,0.3,0.1,0.1l0,0c0.2-0.1,0.5-0.3,0.5-0.2
						C5.8,24.7,5.7,24.7,5.6,24.7z"/>
					<path class="st1" d="M6.7,23.9L7,23.5l-0.2,0.1l0,0C6.6,23.8,6.7,23.8,6.7,23.9z"/>
					<polygon class="st1" points="8.9,22.2 8.9,22.3 9,22 					"/>
					<polygon class="st1" points="9.3,21.7 9.4,21.8 9.5,21.6 					"/>
					<path class="st1" d="M25.3,5.2l-0.1,0.1C25.2,5.3,25.3,5.3,25.3,5.2z"/>
					<path class="st1" d="M26,4.5L26,4.5C26,4.5,26,4.5,26,4.5z"/>
					<path class="st1" d="M20.7,10.3c0.2-0.1,0.5-0.2,0.4-0.2l-0.1,0C20.9,10.2,20.8,10.3,20.7,10.3z"/>
					<path class="st1" d="M28.1,2L28.1,2C28,2.1,28,2.2,28,2.2C28,2.2,28,2.1,28.1,2z"/>
					<path class="st1" d="M27.8,1.6l0.3-0.2C28,1.5,28,1.5,27.8,1.6z"/>
					<path class="st1" d="M21.2,9.5l0,0.2C21.4,9.5,21.2,9.5,21.2,9.5z"/>
					<path class="st1" d="M14.1,16.9c0.2-0.1,0.3-0.2,0.4-0.3C14.2,16.8,14,16.8,14.1,16.9z"/>
					<path class="st1" d="M24.8,4.1c-0.1,0.1-0.1,0.1,0,0.1C24.8,4.2,24.8,4.1,24.8,4.1z"/>
					<path class="st1" d="M14.8,16.3C14.8,16.3,14.8,16.3,14.8,16.3c-0.2,0.2-0.3,0.3-0.4,0.4C14.6,16.6,14.7,16.4,14.8,16.3z"/>
					<path class="st1" d="M6.1,24.4C6.1,24.4,6.1,24.4,6.1,24.4C6.1,24.5,6.1,24.5,6.1,24.4z"/>
					<path class="st1" d="M1,28c0,0,0.1-0.1,0.2-0.2C1.1,27.9,1.1,27.9,1,28z"/>
					<path class="st1" d="M11.2,19.9C11.1,20,11.2,19.9,11.2,19.9L11.2,19.9z"/>
					<path class="st1" d="M10.5,20C10.5,20,10.5,20,10.5,20C10.5,20,10.5,20,10.5,20z"/>
					<path class="st1" d="M15.3,14.8L15.3,14.8C15.3,14.8,15.3,14.8,15.3,14.8z"/>
					<path class="st1" d="M11.1,20c0,0,0.1-0.1,0.1-0.1C11.2,19.9,11.1,19.9,11.1,20z"/>
					<path class="st1" d="M11.1,20C11.1,20,11,20,11.1,20C11,20.1,11,20.1,11.1,20z"/>
					<path class="st1" d="M11.4,19.7c-0.1,0.1-0.1,0.1-0.2,0.2c0,0,0,0,0,0C11.3,19.8,11.3,19.8,11.4,19.7z"/>
					<path class="st1" d="M14,16.2C14,16.2,14,16.2,14,16.2C13.9,16.3,13.9,16.3,14,16.2z"/>
					<path class="st1" d="M22.5,6.9C22.5,7,22.5,7,22.5,6.9L22.5,6.9L22.5,6.9z"/>
					<path class="st1" d="M22.8,6.5c-0.1,0.2-0.2,0.3-0.3,0.4l0.3,0.1L22.8,6.5z"/>
					<path class="st1" d="M23.5,7.1l0.3-0.2c-0.2,0.4-0.4,0.6-0.1,0.5c-0.2-0.3,0.9-1,0.7-1.3L24.6,6c0,0,0,0.1-0.1,0.1
						c0.4-0.2,0.1-0.4,0.5-0.8c0.2-0.1,0.3-0.2,0.2-0.1l0.3-0.4c0.1-0.1,0.1,0,0,0.1L26,4.4l0,0c0-0.1,0.1-0.3,0.2-0.4
						c0.2-0.1,0,0.1,0,0.1l0.2-0.3c0.2,0,0,0.2-0.2,0.4c0.5,0,0.2-0.3,0.8-0.7l-0.2,0.3c0.3,0,0.4-0.3,0.8-0.5c-0.1,0-0.8,0.4-0.6,0
						c0.1-0.1,0.2-0.2,0.3-0.4c0.1,0.1,0.2-0.1,0.4-0.3L28,2.8c0.2-0.2,0.1-0.3,0.2-0.5c0.2-0.2,0.4-0.2,0.5-0.2
						c0.4-0.4-0.4,0.1,0-0.3c0.4-0.3,0.5-0.5,0.8-1c0.3-0.2,0,0.1,0.1,0.1l0.1-0.3c0,0,0.1,0,0.1,0c0.1-0.2-0.1-0.1,0.1-0.4
						c0,0,0,0,0-0.1l-0.4,0c0.1,0,0.1,0.1,0.2,0.3l0-0.5c-0.2,0.1-0.5,0.3-0.6,0.5c-0.1,0,0-0.1-0.1-0.1c-0.3,0.5-0.3,0.4-0.5,0.9
						l-0.4,0.2c0.3-0.1,0.1,0.2,0,0.6C28.2,2,28.3,2,28.3,2L28,2.4c-0.1,0-0.1,0,0-0.2c0,0,0,0.1,0,0.1c-0.2,0.1-0.2,0-0.1-0.2
						c0.1,0,0.1,0,0.2-0.1c0-0.2,0-0.3,0-0.4c0,0-0.1,0.1-0.1,0.2c0,0,0-0.1,0-0.1c0,0,0,0.1-0.1,0.2l-0.2,0l0,0.1L27,2.4
						c-0.2,0.5-0.4,1-0.9,1.6c0.1-0.2-0.1-0.2-0.2-0.3c0.3,0,0.4-0.5,0.7-0.8c-0.2,0.1-0.2,0.1-0.2,0L26,3.6c-0.1-0.1-0.2,0-0.4,0.2
						c0.3,0.1-0.3,0.5-0.5,0.8c-0.1,0-0.1-0.2,0.2-0.4c-0.4,0.2-0.2,0.6-0.6,0.8c0.1-0.1,0.1-0.1,0.1-0.1c-0.1,0.2-0.5,0.5-0.5,0.4
						l0.1-0.1c-0.5,0.4-1.3,1.3-1.2,1.5c0,0-0.1-0.2-0.1-0.3l-0.3,1.3c-0.1-0.2-0.6-0.2-0.3-0.7C22.3,7,22.2,7.2,22,7.4
						c0.1-0.1,0.4,0,0.3,0.1c-0.4,0.1-0.3,0.1-0.7,0.3c0.1-0.1,0.2,0.2,0,0.4c0-0.1-0.2-0.2-0.2-0.3l-0.2,0.6
						c0.1-0.1-0.2-0.2-0.3-0.1c0.1,0-0.4,0.4-0.5,0.5l0.2-0.1C20.2,9.3,20.5,9.6,20,10c0-0.1-0.1-0.4-0.4-0.2c0,0.2,0,1-0.3,1.5
						l-0.1,0l-0.3,0.4c0-0.4,0.3-1.2,0.5-1.7c-0.2,0.1-0.1,0-0.4,0.3c-0.1,0,0.1-0.2,0.1-0.3l-0.7,0.6c0.1,0.1-0.4,0.6-0.2,0.7
						l0.5-0.8c0.1,0.1,0,0.7-0.5,1.1c-0.2,0.1-0.1-0.3-0.2-0.3c0,0.1-0.3,0.5-0.4,0.5l0.1-0.2c-0.3,0.2-0.2,0.6-0.6,0.7
						c-0.1,0.1-0.5,0.1-0.4,0.2c0.3,0,0.8,0.4,0.7,0.6c0,0-0.7,0.4-0.8,0.4c-0.3,0.1,0-0.5-0.2-0.5c0,0,0,0.2-0.1,0.2
						c-0.1,0.1-0.1-0.1-0.3,0.1c0.1,0.2-0.5,0.5,0,0.2c-0.2,0.3-0.3,0.2-0.5,0.5c0.2,0,0,0.5-0.2,0.8c0,0-0.1,0-0.2,0
						c-0.5,0.5-0.8,0.6-1.2,1.1c-0.1,0-0.3,0.2-0.3,0c0,0.1-0.1,0.2-0.2,0.3c-0.4,0.2,0.3-0.3,0-0.2c0.1,0.1-0.2,0.4-0.4,0.7
						c0.2,0.1,0.5-0.4,0.6-0.6c0.2,0.1,0,0.6-0.4,1.2c-0.3,0.4-0.3,0.1-0.3,0.1c-0.7,0.6-0.3,0.8-1,1.3c-0.3,0.1-0.2-0.2-0.3-0.2
						c0.3-0.3,0.5-0.4,0.7-0.6L12.2,18c0.1-0.1,0.2-0.3,0.4-0.4c-0.3,0.1-1.1,1.1-1.7,1.6c-0.1,0.1-0.2,0.3-0.1,0.3l0.2-0.2
						c0.2-0.1-0.2,0.4,0,0.2c-0.2,0.3-0.3,0.6-0.7,0.9l-0.2-0.1c0,0,0.3-0.1,0.3-0.3c-0.1,0.2-0.6,0.3-0.6,0.6l0.3-0.1
						c-0.2,0.3-0.3,0.7-0.6,0.9c0.2,0,0.1-0.1,0.4-0.1c-0.3,0,0.7-0.7,0.3-0.6c0.3-0.1,0.4-0.3,0.8-0.4c0,0-0.2,0,0.1-0.2
						c0,0,0-0.1,0-0.1l0,0l0,0c0,0,0,0,0,0c-0.1,0-0.1,0.1-0.2,0.1c0-0.2,0.4-0.6,0.5-0.7c0.2-0.1,0,0.1,0.1,0.1l0.1-0.2
						c0.1,0.1,0.5-0.2,0.2,0.1l0.3-0.3c0.2-0.1,0.5-0.3,0.6-0.5c0.2-0.1,0.3-0.4,0.2-0.3l0.4-0.5l0,0c0.5-0.4,0.8-1.1,1.4-1.4
						c0.1-0.2,0.3-0.4,0.5-0.6l0.1,0c0.2-0.2,0.7-0.5,0.7-0.7c0.4,0,1-0.9,1.4-1.2l-0.1-0.1c0.2-0.2,0.4-0.5,0.7-0.8l-0.1-0.1
						c0.2-0.3,0.7-0.6,1.1-1c0,0.1-0.1,0.2-0.2,0.2c0.7-0.3,0.9-1.1,1.4-1.4c0.1-0.1,0.2-0.2,0.3-0.3c0,0,0,0,0,0c0,0,0,0,0,0
						c0.1,0,0.1-0.1,0.2-0.1c-0.1,0-0.1,0.1-0.2,0.1c0.1-0.1,0.2-0.2,0.3-0.4l0.1,0c0,0,0,0,0,0c0.2-0.1,0.1-0.1-0.1-0.1
						c0-0.1,0.1-0.1,0.1-0.2c0.2,0,0.3-0.4,0.6-0.4c0-0.2,0.6-0.7,0.5-0.9c0,0,0.1,0,0,0.1c0.2-0.1,0.3-0.2,0.4-0.4l0.2,0.1l0.2-0.4
						c0.2-0.1,0.4-0.2,0.3,0.1c0.3-0.6,0.3-0.4,0.5-0.9L23.7,7c0.1-0.1,0.2-0.4,0.4-0.5c0.4-0.2,1.5-1.4,2.4-2.1
						c-0.4-0.1,0.4-0.3,0.3-0.5c0.1,0,0.2-0.1,0.1,0.1c0.3-0.4,0.7-0.5,0.8-0.9c0.1,0,0,0.2,0.1,0.1c0,0,0.1-0.2,0.2-0.2
						c0.1,0,0,0.1-0.1,0.2c0.4-0.4,0.3-0.6,0.2-0.8c0.3-0.1,0.4-0.2,0.4-0.5c0.1,0,0.3-0.1,0.1,0.2c0.1-0.1,0.9-0.8,0.8-0.9
						c0.1,0,0.2-0.2,0.2-0.2c0.3-0.3,0.4-0.3,0.6-0.6L30,0.5c0-0.1,0-0.2,0.1-0.2l0.1-0.2L30.1,0C30,0,30-0.1,29.9-0.2l-0.1-0.2
						l-0.2,0.2c0,0-0.1,0.1-0.1,0.1l0,0c-0.7,0.5-0.2,0.3-0.9,0.7l0.1,0.1c0.1,0.2-0.6,0.4-0.9,0.8L28,1.4c-0.1,0.2-0.7,0.2-0.9,0.4
						c-0.1,0,0-0.1,0.1-0.2c-0.6,0.4,0.1,0.2-0.3,0.5c-0.1,0-0.1-0.2-0.3,0c-0.2,0.1-0.5,0.9-0.9,1.1c0.1,0,0.2,0,0.1,0.1
						c-0.2,0.3-0.8,0.5-0.9,0.9c0,0-0.1,0-0.1,0c-0.2,0.2-0.5,0.7-0.6,0.9c-0.5-0.1-1,1.3-1.3,1l-0.6,0.6l0,0
						c-0.4,0.4-0.5,0.5-0.5,0.7c-0.1,0.1-0.1,0-0.1,0c-0.6,0.5-0.6,0.6-1,1.1l-0.1,0c-0.1,0.2-0.9,0.6-1.3,1.3c0,0,0,0,0-0.1
						c-0.5,0.7-1.7,1.2-1.6,1.7l-0.3,0.5c0.5-0.5,0.1,0.2,0.3,0.1c-0.2,0.2-0.6,0.4-0.4,0.2l0.1,0c-0.1-0.3-0.7,0.6-0.8,0.4
						c-1,1-2.1,1.9-3,2.8l0.2,0l-0.3,0.3c-0.1,0.1-0.2,0,0-0.2c-0.2,0-0.3,0.5-0.3,0.5c-0.5,0.4,0-0.3-0.1-0.2L12.9,16l0.1,0
						c-0.1,0.2-0.1,0.3-0.3,0.6c-0.2,0.2-0.2,0-0.2,0.1c0,0,0,0-0.1,0.1l-0.4,0.4l0.3-0.1c-0.1,0.2-0.4,0.4-0.1,0.3
						c-0.5,0.1-1.6,1.5-1.8,1.6c-0.2,0.3-0.4,0.6-0.8,0.9c0.1-0.1,0.3,0,0,0.3c-0.1-0.3-0.6,0.4-1,0.4c0.3-0.1-0.7,0.8-0.3,0.7
						c-0.2,0.2-0.1-0.1-0.3,0c-0.4,0.6-1.2,1.1-1.9,1.8c0,0,0.2,0,0.1,0.2l-0.5,0.2c-0.1,0.1,0.1,0.3-0.3,0.4c0.1,0,0.1,0,0.1,0.1
						c-1.5,1.1-2.5,2.8-4.1,3.8c0.2-0.1,0.1,0,0,0.1c0.1-0.1,0.1,0.1,0.1,0.1l-0.7,0.4c0,0.2-0.6,0.6-0.5,0.8L0.2,29
						c-0.1,0.4,0.6,0,0.8,0.2c0.1-0.4,0.9-0.5,1.1-1.1c0.1-0.1,0,0.1,0.1,0.1c0-0.2,0.2-0.3,0.4-0.5l0,0c0.7-0.7,1-0.9,1.8-1.6
						l-0.1,0c0.2-0.2,0.2-0.2,0.3-0.2c0.1-0.3-0.5,0.5-0.4,0.1c0.4,0,1.2-1.2,1.5-1.1c0.3-0.3-0.2,0,0.1-0.3l0.1,0l0-0.1
						c0.2-0.2,0.3-0.2,0.4-0.1c0,0-0.1,0.1-0.1,0.2c0.3-0.2,0.6-0.6,0.7-0.7L6.5,24c0.6-0.7,1.6-1.5,2.1-2.3l-0.1,0
						c0.4-0.6,0.5-0.4,1-1l0,0c0.1-0.2,0.2-0.3,0.4-0.5c-0.1,0.2,0.4-0.2,0.2,0.1c0.5-0.6,0.2-0.3,0.4-0.8l0.1,0
						c0.1-0.2,0-0.2,0.3-0.5c-0.2,0.3,0.3-0.1,0.1,0.3c0.7-0.4,0.7-1,1.2-1.1c0.1-0.5-0.6,0.4-0.5,0.2c-0.2,0.1,0.1-0.4,0.3-0.5
						c0.2-0.2,0.6-0.1,1-0.6c0,0,0,0.1-0.1,0.1c0.2-0.1,0.3-0.4,0.6-0.5c0-0.2,0.3-0.3,0.2-0.4l-0.4,0.5c0.2-0.3,0.3-0.7,0.8-1
						c0,0.1-0.1,0.2-0.1,0.3c0.2-0.1,0.2-0.3,0.4-0.3c0.1,0.2-0.5,0.6-0.6,0.9c0.2-0.1,0.4-0.6,0.4-0.3c0-0.4,0.5-0.4,0.7-0.9
						l0.1,0.1c0-0.1,0.1-0.2,0.2-0.3L15,15.6c0.2-0.4,0.6-0.4,0.8-0.7c-0.5,0.5-0.2,0-0.5,0.2c0.5-0.8,0.6-0.1,1.3-0.9
						c-0.1,0.1-0.4,0.3-0.3,0.1c0.2-0.1,0.4-0.3,0.5-0.3c0.5-0.5-0.2,0,0-0.3c0.3-0.1,0.2-0.3,0.4-0.5l0.1,0.1
						c0.6-0.5,0-0.3,0.5-0.7l-0.1,0.3l0.2-0.3l0,0.1c0.2-0.3,0.3-0.4,0.6-0.7c-0.1,0-0.1-0.2,0.1-0.4c0.2-0.1,0,0.2,0.3-0.2
						c0,0.1,0,0.3-0.3,0.3c0,0,0,0.1,0,0.2c0.2-0.1,0.5-0.4,0.6-0.6c-0.1,0-0.1,0.1-0.2,0.1l0.4-0.6c0.1,0,0.1,0,0,0.1
						c0.1-0.1,0.1-0.2,0.3-0.4c0,0.1,0.1,0.2-0.1,0.4l0.4-0.5c0.1,0,0.3-0.2,0.3-0.1c0.3-0.2,0.5-0.8,0.9-1.1c0,0,0-0.1,0.1-0.2
						c0.3-0.3,0.7-0.5,1-1l0.3-0.1c0.3-0.3-0.5,0.1,0-0.4c0.3-0.4,0.2,0,0.4-0.1c0.1-0.2,0.3-0.7,0.7-0.9C23.7,6.9,23.6,7,23.5,7.1z
						 M27.1,3.3c-0.1,0.1-0.1,0.3-0.2,0.3C26.9,3.4,27,3.4,27.1,3.3z M27.3,2.4c0-0.1,0.1-0.2,0.2-0.2C27.5,2.3,27.5,2.4,27.3,2.4z
						 M12.2,18.7C12.2,18.7,12.2,18.7,12.2,18.7C12.4,18.6,12.4,18.6,12.2,18.7z M11.9,19C11.9,19.1,11.9,19.1,11.9,19
						c0,0,0.1-0.1,0.2-0.1C12,18.9,12,18.9,11.9,19z M12.4,16.7L12.4,16.7C12.3,16.8,12.3,16.7,12.4,16.7z"/>
					<path class="st1" d="M27.9,1.7C27.9,1.7,27.9,1.7,27.9,1.7C28,1.6,27.9,1.6,27.9,1.7z"/>
					<path class="st1" d="M21.2,9.4L21.2,9.4C21.2,9.5,21.2,9.5,21.2,9.4L21.2,9.4z"/>
					<path class="st1" d="M16.3,13.1c0.1-0.1,0.1-0.1,0.2-0.1C16.5,13,16.4,13,16.3,13.1z"/>
					<path class="st1" d="M10.3,20.9l0.2-0.2C10.4,20.8,10.3,20.8,10.3,20.9C10.3,20.9,10.3,20.9,10.3,20.9z"/>
					<path class="st1" d="M7.9,22.2c0,0-0.1,0.1-0.1,0.1l0,0C8,22.2,8,22.1,7.9,22.2z"/>
					<path class="st1" d="M9.8,20.8c-0.1-0.1-0.2,0.1-0.3,0.3l0,0C9.5,21.2,9.7,21,9.8,20.8z"/>
					<path class="st1" d="M9.4,21.1c0,0-0.1,0.1-0.1,0.1C9.3,21.3,9.3,21.2,9.4,21.1z"/>
					<path class="st1" d="M11.5,19.5c-0.1,0.1,0,0.1,0,0.1C11.5,19.8,11.8,19,11.5,19.5z"/>
					<polygon class="st1" points="9.4,20.7 9.6,20.8 9.6,20.6 					"/>
					<path class="st1" d="M10.7,19.6l-0.3,0.2c0,0,0,0.1,0,0.1C10.5,19.8,10.7,19.6,10.7,19.6z"/>
					<path class="st1" d="M10.4,19.9c-0.1,0.1-0.1,0.1-0.2,0.2C10.2,20.1,10.3,20,10.4,19.9z"/>
					<polygon class="st1" points="9.7,20.4 9.8,20.3 10,20.2 					"/>
					<path class="st1" d="M13.2,17.1l0.2-0.3c0-0.1-0.1,0-0.2,0.1C13.3,17,13.2,17.1,13.2,17.1z"/>
					<path class="st1" d="M12.2,17.6c0.1-0.1,0.1,0,0.2,0l-0.1-0.1L12.2,17.6z"/>
					<path class="st1" d="M12.9,16.8c0-0.1,0.3-0.5,0-0.1C12.9,16.7,12.7,17,12.9,16.8z"/>
					<polygon class="st1" points="17,13 16.9,13.1 17.1,13.3 					"/>
					<path class="st1" d="M20,9.1c-0.4,0.3,0,0.2-0.3,0.4c0,0.1,0.3-0.2,0.2-0.1C20.1,9.3,20.2,9.2,20,9.1z"/>
					<path class="st1" d="M20,9.5c0,0,0,0.1-0.1,0.1C19.9,9.5,20,9.5,20,9.5z"/>
					<polygon class="st1" points="0.2,28.7 -0.1,28.8 0.1,28.8 					"/>
					<path class="st1" d="M-0.1,29.2l-0.2-0.1l0,0.2C-0.2,29.3-0.2,29.2-0.1,29.2z"/>
					<path class="st1" d="M27.9,3L27.9,3c-0.1,0-0.1,0-0.2,0.1L27.9,3z"/>
					<polygon class="st1" points="25.1,5.6 25.2,5.6 25,5.5 					"/>
					<path class="st1" d="M23,8c0.1-0.1,0.2-0.2,0.3-0.3C23.1,7.9,22.9,7.9,23,8z"/>
				</g>
			</g>
		</g>
	</g>
</g>
</svg>
