<?xml version="1.0" encoding="UTF-8"?>
<svg width="30px" height="30px" viewBox="0 0 30 30" version="1.1" xmlns="http://www.w3.org/2000/svg" xmlns:xlink="http://www.w3.org/1999/xlink">
    <!-- Generator: Sketch 43.1 (39012) - http://www.bohemiancoding.com/sketch -->
    <title>search</title>
    <desc>Created with Sketch.</desc>
    <defs></defs>
    <g id="Page-1" stroke="none" stroke-width="1" fill="none" fill-rule="evenodd">
        <g id="maquette-nos-missions-" transform="translate(-273.000000, -17.000000)" fill="#FF8100">
            <g id="HEADER" transform="translate(0.000000, 17.000000)">
                <g id="search" transform="translate(273.000000, 0.000000)">
                    <g id="Capa_1">
                        <g id="Group">
                            <path d="M29.1285185,25.1584568 L22.2572222,18.2866049 C21.2333951,19.8788889 19.8784568,21.2331481 18.2861728,22.257037 L25.1580247,29.1288889 C26.2550617,30.225679 28.0337654,30.225679 29.1284568,29.1288889 C30.2255556,28.0338889 30.2255556,26.2551852 29.1285185,25.1584568 Z" id="Shape"></path>
                            <path d="M22.4635185,11.2317901 C22.4635185,5.02919753 17.4345679,0 11.2318519,0 C5.02925926,0 6.17283949e-05,5.02919753 6.17283949e-05,11.2317901 C6.17283949e-05,17.4343827 5.02925926,22.4633333 11.2318519,22.4633333 C17.4345679,22.4633333 22.4635185,17.4343827 22.4635185,11.2317901 Z M11.2318519,19.6553086 C6.58666667,19.6553086 2.80808642,15.877037 2.80808642,11.2318519 C2.80808642,6.58666667 6.58666667,2.80808642 11.2318519,2.80808642 C15.8769136,2.80808642 19.6558025,6.58666667 19.6558025,11.2318519 C19.6558025,15.877037 15.8769136,19.6553086 11.2318519,19.6553086 Z" id="Shape"></path>
                            <path d="M4.68006173,11.2317901 L6.55179012,11.2317901 C6.55179012,8.65135802 8.65141975,6.55191358 11.2317901,6.55191358 L11.2317901,4.68 C7.61962963,4.68 4.68006173,7.6195679 4.68006173,11.2317901 Z" id="Shape"></path>
                        </g>
                    </g>
                </g>
            </g>
        </g>
    </g>
</svg>