<?xml version="1.0" encoding="UTF-8"?>
<svg width="15px" height="15px" viewBox="0 0 15 15" version="1.1" xmlns="http://www.w3.org/2000/svg" xmlns:xlink="http://www.w3.org/1999/xlink">
    <!-- Generator: Sketch 43.1 (39012) - http://www.bohemiancoding.com/sketch -->
    <title>search</title>
    <desc>Created with Sketch.</desc>
    <defs></defs>
    <g id="Page-1" stroke="none" stroke-width="1" fill="none" fill-rule="evenodd">
        <g id="maquette-nos-missions-" transform="translate(-273.000000, -40.000000)" fill="#FF8100">
            <g id="HEADER" transform="translate(0.000000, 21.000000)">
                <g id="search" transform="translate(273.000000, 19.000000)">
                    <g id="Capa_1">
                        <g id="Group">
                            <path d="M14.5642593,12.5792284 L11.1286111,9.14330247 C10.6166975,9.93944444 9.9392284,10.6165741 9.14308642,11.1285185 L12.5790123,14.5644444 C13.1275309,15.1128395 14.0168827,15.1128395 14.5642284,14.5644444 C15.1127778,14.0169444 15.1127778,13.1275926 14.5642593,12.5792284 Z" id="Shape"></path>
                            <path d="M11.2317593,5.61589506 C11.2317593,2.51459877 8.71728395,0 5.61592593,0 C2.51462963,0 3.08641975e-05,2.51459877 3.08641975e-05,5.61589506 C3.08641975e-05,8.71719136 2.51462963,11.2316667 5.61592593,11.2316667 C8.71728395,11.2316667 11.2317593,8.71719136 11.2317593,5.61589506 Z M5.61592593,9.82765432 C3.29333333,9.82765432 1.40404321,7.93851852 1.40404321,5.61592593 C1.40404321,3.29333333 3.29333333,1.40404321 5.61592593,1.40404321 C7.93845679,1.40404321 9.82790123,3.29333333 9.82790123,5.61592593 C9.82790123,7.93851852 7.93845679,9.82765432 5.61592593,9.82765432 Z" id="Shape"></path>
                            <path d="M2.34003086,5.61589506 L3.27589506,5.61589506 C3.27589506,4.32567901 4.32570988,3.27595679 5.61589506,3.27595679 L5.61589506,2.34 C3.80981481,2.34 2.34003086,3.80978395 2.34003086,5.61589506 Z" id="Shape"></path>
                        </g>
                    </g>
                </g>
            </g>
        </g>
    </g>
</svg>