<?xml version="1.0" encoding="UTF-8"?>
<svg width="38px" height="38px" viewBox="0 0 38 38" version="1.1" xmlns="http://www.w3.org/2000/svg" xmlns:xlink="http://www.w3.org/1999/xlink">
    <!-- Generator: Sketch 43.1 (39012) - http://www.bohemiancoding.com/sketch -->
    <title>search</title>
    <desc>Created with Sketch.</desc>
    <defs></defs>
    <g id="Page-1" stroke="none" stroke-width="1" fill="none" fill-rule="evenodd">
        <g id="maquette-nos-missions-" transform="translate(-273.000000, -36.000000)" fill="#FF8100">
            <g id="HEADER" transform="translate(0.000000, 21.000000)">
                <g id="search" transform="translate(273.000000, 15.000000)">
                    <g id="Capa_1">
                        <g id="Group">
                            <path d="M36.8961235,31.8673786 L28.1924815,23.1630329 C26.8956337,25.1799259 25.1793786,26.895321 23.1624856,28.1922469 L31.8668313,36.8965926 C33.2564115,38.2858601 35.5094362,38.2858601 36.8960453,36.8965926 C38.2857037,35.5095926 38.2857037,33.2565679 36.8961235,31.8673786 Z" id="Shape"></path>
                            <path d="M28.4537901,14.2269342 C28.4537901,6.37031687 22.083786,0 14.2270123,0 C6.37039506,0 7.81893003e-05,6.37031687 7.81893003e-05,14.2269342 C7.81893003e-05,22.0835514 6.37039506,28.4535556 14.2270123,28.4535556 C22.083786,28.4535556 28.4537901,22.0835514 28.4537901,14.2269342 Z M14.2270123,24.8967243 C8.34311111,24.8967243 3.55690947,20.1109136 3.55690947,14.2270123 C3.55690947,8.34311111 8.34311111,3.55690947 14.2270123,3.55690947 C20.1107572,3.55690947 24.8973498,8.34311111 24.8973498,14.2270123 C24.8973498,20.1109136 20.1107572,24.8967243 14.2270123,24.8967243 Z" id="Shape"></path>
                            <path d="M5.92807819,14.2269342 L8.29893416,14.2269342 C8.29893416,10.9583868 10.958465,8.29909053 14.2269342,8.29909053 L14.2269342,5.928 C9.65153086,5.928 5.92807819,9.65145267 5.92807819,14.2269342 Z" id="Shape"></path>
                        </g>
                    </g>
                </g>
            </g>
        </g>
    </g>
</svg>